<svg width="167" height="152" viewBox="0 0 167 152" fill="none" xmlns="http://www.w3.org/2000/svg">
<path d="M82.4161 133.259C117.284 133.259 145.551 104.992 145.551 69.9996C145.551 35.0077 117.284 6.74023 82.4161 6.74023C47.5487 6.74023 19.2812 35.0077 19.2812 69.9996C19.2812 104.992 47.5487 133.259 82.4161 133.259Z" fill="#F3F4F6"/>
<path d="M35.968 36.502H125.752C129.363 36.502 132.102 39.2415 132.102 42.8528V99.7614C132.102 103.373 129.363 106.112 125.752 106.112H35.968C32.3568 106.112 29.6172 103.373 29.6172 99.7614V42.8528C29.6172 39.2415 32.6058 36.502 35.968 36.502Z" fill="url(#paint0_linear_19387_95918)"/>
<g filter="url(#filter0_d_19387_95918)">
<path d="M114.891 42.8489L115.654 104.288C115.654 106.387 113.937 108.008 111.838 108.008H51.9255C49.8266 108.008 48.1094 106.291 48.1094 104.288V25.2949C48.1094 23.1961 49.8266 21.5742 51.9255 21.5742H95.3334L114.891 42.8489Z" fill="url(#paint1_linear_19387_95918)"/>
</g>
<path d="M86.9387 34.4531H58.2227C57.5548 34.4531 56.9824 33.8807 56.9824 33.2129C56.9824 32.5451 57.5548 31.9727 58.2227 31.9727H86.9387C87.6065 31.9727 88.1789 32.5451 88.1789 33.2129C88.1789 33.8807 87.6065 34.4531 86.9387 34.4531Z" fill="#D5DDEA"/>
<path d="M69.2893 41.3223H58.2227C57.5548 41.3223 56.9824 40.7498 56.9824 40.082C56.9824 39.4142 57.5548 38.8418 58.2227 38.8418H69.1939C69.8617 38.8418 70.4341 39.4142 70.4341 40.082C70.4341 40.7498 69.8617 41.3223 69.2893 41.3223Z" fill="#D5DDEA"/>
<path d="M95.334 21.5742V38.5558C95.334 40.9408 97.4328 42.8489 99.8179 42.8489H114.891" fill="#D5DDEA"/>
<path d="M106.898 55.8301H96.487H93.9066H58.5812C58.1363 55.8301 57.6914 56.2759 57.6914 56.9001C57.6914 57.4351 58.0473 57.9701 58.5812 57.9701H93.9066H96.487H106.809C107.432 57.9701 107.788 57.5243 107.788 56.9001C107.788 56.3651 107.432 55.8301 106.898 55.8301Z" fill="#D5DDEA"/>
<path d="M133.847 72.989V101.007C133.847 104.619 130.983 107.607 127.247 107.607H34.9729C31.3617 107.607 28.373 104.619 28.373 101.007V70.623" stroke="#1676EE" stroke-width="2.70473" stroke-linecap="round" stroke-linejoin="round"/>
<path d="M126.001 57.2988H96.8618C93.9977 57.2988 91.2581 58.295 89.1412 60.0384L81.5451 66.2647C79.4281 68.0081 76.6885 69.0043 73.8244 69.0043H40.9494C37.5872 69.0043 34.8477 71.7439 34.8477 75.1061C34.8477 75.3552 34.8477 75.7287 34.9722 75.9778L41.074 108.106C41.5721 111.094 44.0626 113.336 47.1758 113.336H117.533C120.522 113.336 123.137 111.219 123.635 108.23L132.103 64.2723C132.725 60.9101 130.484 57.9215 127.122 57.2988C126.624 57.2988 126.25 57.2988 126.001 57.2988Z" fill="white"/>
<g filter="url(#filter1_d_19387_95918)">
<path d="M139.076 48.7046H101.22C97.4842 48.7046 93.9974 49.9499 91.1333 52.3159L81.1712 60.4101C78.4316 62.6516 74.8204 64.0214 71.0846 64.0214H28.2475C23.8891 64.0214 20.4023 67.6326 20.4023 71.8665C20.4023 72.2401 20.4023 72.6137 20.5269 72.9872L28.372 114.953C28.9947 118.937 32.3569 121.802 36.2172 121.802H127.869C131.853 121.802 135.091 119.062 135.714 115.077L146.797 57.6705C147.544 53.3121 144.68 49.4518 140.321 48.5801C139.948 48.7046 139.45 48.7046 139.076 48.7046Z" fill="url(#paint2_linear_19387_95918)"/>
</g>
<path d="M143.688 44.4903C146.069 44.4903 148 42.5595 148 40.1778C148 37.796 146.069 35.8652 143.688 35.8652C141.306 35.8652 139.375 37.796 139.375 40.1778C139.375 42.5595 141.306 44.4903 143.688 44.4903Z" fill="#F3F4F6"/>
<path d="M139.375 30.4997C141.001 30.4997 142.32 29.1811 142.32 27.5545C142.32 25.928 141.001 24.6094 139.375 24.6094C137.748 24.6094 136.43 25.928 136.43 27.5545C136.43 29.1811 137.748 30.4997 139.375 30.4997Z" fill="#F3F4F6"/>
<path d="M20.0955 40.1774C21.7221 40.1774 23.0407 38.8588 23.0407 37.2323C23.0407 35.6057 21.7221 34.2871 20.0955 34.2871C18.469 34.2871 17.1504 35.6057 17.1504 37.2323C17.1504 38.8588 18.469 40.1774 20.0955 40.1774Z" fill="#F3F4F6"/>
<path d="M13.4696 104.97C16.4903 104.97 18.9391 102.522 18.9391 99.5008C18.9391 96.4801 16.4903 94.0312 13.4696 94.0312C10.4488 94.0312 8 96.4801 8 99.5008C8 102.522 10.4488 104.97 13.4696 104.97Z" fill="#F3F4F6"/>
<path d="M137.146 118.575L132.06 123.653L117.311 109.094L122.397 104.016L137.146 118.575Z" fill="#FCCCD6"/>
<path d="M81.3917 68.7607C70.372 79.7646 70.372 97.5401 81.3917 108.544C92.4113 119.548 110.212 119.548 121.232 108.544C132.252 97.5401 132.252 79.7646 121.232 68.7607C110.212 57.7568 92.4113 57.7568 81.3917 68.7607ZM116.655 103.973C108.178 112.438 94.4457 112.438 85.7995 103.973C77.3229 95.5086 77.3229 81.7961 85.7995 73.1623C94.2762 64.6978 108.008 64.6978 116.655 73.1623C125.131 81.7961 125.131 95.5086 116.655 103.973Z" fill="url(#paint3_linear_19387_95918)"/>
<path d="M145.135 131.609C142.931 133.81 139.202 133.81 136.828 131.609L121.909 116.881C121.062 116.035 121.062 114.511 121.909 113.495L126.826 108.586C127.673 107.74 129.199 107.74 130.047 108.586L145.135 123.314C147.509 125.684 147.509 129.409 145.135 131.609Z" fill="url(#paint4_linear_19387_95918)"/>
<path d="M99.1933 93.2444C99.1424 92.8386 99.0916 92.4329 99.0916 91.9764C99.0916 90.3027 99.8031 88.7811 101.582 87.4624L103.106 86.3465C104.072 85.6365 104.478 84.825 104.478 83.8613C104.478 82.4411 103.462 81.0717 101.328 81.0717C99.0916 81.0717 98.1261 82.8469 98.1261 84.6221C98.1261 84.9771 98.1769 85.3322 98.2277 85.6365L94.2638 85.4843C94.1621 85.0278 94.1113 84.5206 94.1113 84.0642C94.1113 80.666 96.6523 77.4199 101.277 77.4199C106.156 77.4199 108.696 80.4631 108.696 83.6584C108.696 86.1437 107.426 87.8681 105.597 89.1868L104.326 90.0998C103.208 90.8606 102.649 91.875 102.649 93.143V93.3458H99.1933V93.2444ZM100.972 95.2732C102.344 95.2732 103.462 96.389 103.462 97.7584C103.462 99.1278 102.344 100.244 100.972 100.244C99.5998 100.244 98.4818 99.1278 98.4818 97.7584C98.4818 96.389 99.5998 95.2732 100.972 95.2732Z" fill="#989FB0"/>
<defs>
<filter id="filter0_d_19387_95918" x="28.2747" y="11.6569" width="107.214" height="126.103" filterUnits="userSpaceOnUse" color-interpolation-filters="sRGB">
<feFlood flood-opacity="0" result="BackgroundImageFix"/>
<feColorMatrix in="SourceAlpha" type="matrix" values="0 0 0 0 0 0 0 0 0 0 0 0 0 0 0 0 0 0 127 0" result="hardAlpha"/>
<feOffset dy="9.91736"/>
<feGaussianBlur stdDeviation="9.91736"/>
<feColorMatrix type="matrix" values="0 0 0 0 0.397708 0 0 0 0 0.47749 0 0 0 0 0.575 0 0 0 0.27 0"/>
<feBlend mode="normal" in2="BackgroundImageFix" result="effect1_dropShadow_19387_95918"/>
<feBlend mode="normal" in="SourceGraphic" in2="effect1_dropShadow_19387_95918" result="shape"/>
</filter>
<filter id="filter1_d_19387_95918" x="0.567625" y="38.6627" width="166.181" height="112.89" filterUnits="userSpaceOnUse" color-interpolation-filters="sRGB">
<feFlood flood-opacity="0" result="BackgroundImageFix"/>
<feColorMatrix in="SourceAlpha" type="matrix" values="0 0 0 0 0 0 0 0 0 0 0 0 0 0 0 0 0 0 127 0" result="hardAlpha"/>
<feOffset dy="9.91736"/>
<feGaussianBlur stdDeviation="9.91736"/>
<feColorMatrix type="matrix" values="0 0 0 0 0.397708 0 0 0 0 0.47749 0 0 0 0 0.575 0 0 0 0.27 0"/>
<feBlend mode="normal" in2="BackgroundImageFix" result="effect1_dropShadow_19387_95918"/>
<feBlend mode="normal" in="SourceGraphic" in2="effect1_dropShadow_19387_95918" result="shape"/>
</filter>
<linearGradient id="paint0_linear_19387_95918" x1="80.8679" y1="38.9201" x2="80.8679" y2="77.9917" gradientUnits="userSpaceOnUse">
<stop stop-color="#B0BACC"/>
<stop offset="1" stop-color="#969EAE"/>
</linearGradient>
<linearGradient id="paint1_linear_19387_95918" x1="81.8597" y1="19.5749" x2="81.8597" y2="108.94" gradientUnits="userSpaceOnUse">
<stop stop-color="#FDFEFF"/>
<stop offset="0.9964" stop-color="#ECF0F5"/>
</linearGradient>
<linearGradient id="paint2_linear_19387_95918" x1="83.6175" y1="46.8864" x2="83.6175" y2="122.591" gradientUnits="userSpaceOnUse">
<stop stop-color="#FDFEFF"/>
<stop offset="0.9964" stop-color="#ECF0F5"/>
</linearGradient>
<linearGradient id="paint3_linear_19387_95918" x1="73.1011" y1="88.6584" x2="129.507" y2="88.6584" gradientUnits="userSpaceOnUse">
<stop stop-color="#F56685"/>
<stop offset="1" stop-color="#F1335C"/>
</linearGradient>
<linearGradient id="paint4_linear_19387_95918" x1="121.262" y1="120.608" x2="146.92" y2="120.608" gradientUnits="userSpaceOnUse">
<stop stop-color="#F56685"/>
<stop offset="1" stop-color="#F1335C"/>
</linearGradient>
</defs>
</svg>
